<svg version="1.1" xmlns="http://www.w3.org/2000/svg" xmlns:xlink="http://www.w3.org/1999/xlink" width="372" height="323"><defs></defs><g><g transform="scale(1,1)"><rect fill="#C0C0C0" stroke="none" x="17" y="117" width="156" height="102" opacity="0.2"></rect></g><g transform="scale(1,1)"><rect fill="#ffffff" stroke="none" x="10" y="110" width="156" height="102"></rect></g><g transform="scale(1,1)"><path fill="none" stroke="#000000" d="M 10 110 L 166 110 L 166 212 L 10 212 L 10 110 Z" stroke-miterlimit="10"></path></g><g transform="scale(1,1)"><path fill="none" stroke="#000000" d="M 10 135 L 166 135" stroke-miterlimit="10"></path></g><g transform="scale(1,1)"><path fill="none" stroke="#000000" d="M 10 203 L 166 203" stroke-miterlimit="10"></path></g><g transform="scale(1,1)"><g><path fill="none" stroke="none"></path><text fill="#000000" stroke="none" font-family="Arial" font-size="13px" font-style="normal" font-weight="bold" text-decoration="none" x="76.5" y="129.5">Day</text></g></g><g transform="scale(1,1)"><g><path fill="none" stroke="none"></path><text fill="#000000" stroke="none" font-family="Arial" font-size="13px" font-style="normal" font-weight="normal" text-decoration="none" x="15" y="152.5">+date: date</text></g></g><g transform="scale(1,1)"><g><path fill="none" stroke="none"></path><text fill="#000000" stroke="none" font-family="Arial" font-size="13px" font-style="normal" font-weight="normal" text-decoration="none" x="15" y="167.5">+wr: boolean</text></g></g><g transform="scale(1,1)"><g><path fill="none" stroke="none"></path><text fill="#000000" stroke="none" font-family="Arial" font-size="13px" font-style="normal" font-weight="normal" text-decoration="none" x="15" y="182.5">+oTotal: integer</text></g></g><g transform="scale(1,1)"><g><path fill="none" stroke="none"></path><text fill="#000000" stroke="none" font-family="Arial" font-size="13px" font-style="normal" font-weight="normal" text-decoration="none" x="15" y="197.5">+dTotal: integer</text></g></g><g transform="scale(1,1)"><rect fill="#C0C0C0" stroke="none" x="257" y="233" width="103" height="87" opacity="0.2"></rect></g><g transform="scale(1,1)"><rect fill="#ffffff" stroke="none" x="250" y="226" width="103" height="87"></rect></g><g transform="scale(1,1)"><path fill="none" stroke="#000000" d="M 250 226 L 353 226 L 353 313 L 250 313 L 250 226 Z" stroke-miterlimit="10"></path></g><g transform="scale(1,1)"><path fill="none" stroke="#000000" d="M 250 251 L 353 251" stroke-miterlimit="10"></path></g><g transform="scale(1,1)"><path fill="none" stroke="#000000" d="M 250 304 L 353 304" stroke-miterlimit="10"></path></g><g transform="scale(1,1)"><g><path fill="none" stroke="none"></path><text fill="#000000" stroke="none" font-family="Arial" font-size="13px" font-style="normal" font-weight="bold" text-decoration="none" x="292" y="245.5">OD</text></g></g><g transform="scale(1,1)"><g><path fill="none" stroke="none"></path><text fill="#000000" stroke="none" font-family="Arial" font-size="13px" font-style="normal" font-weight="normal" text-decoration="none" x="255" y="268.5">+timekey: string</text></g></g><g transform="scale(1,1)"><g><path fill="none" stroke="none"></path><text fill="#000000" stroke="none" font-family="Arial" font-size="13px" font-style="normal" font-weight="normal" text-decoration="none" x="255" y="283.5">+o: boolean</text></g></g><g transform="scale(1,1)"><g><path fill="none" stroke="none"></path><text fill="#000000" stroke="none" font-family="Arial" font-size="13px" font-style="normal" font-weight="normal" text-decoration="none" x="255" y="298.5">+d: boolean</text></g></g><g transform="scale(1,1)"><path fill="none" stroke="#000000" d="M 249 242.63380281690138 L 167 201.056338028169" stroke-miterlimit="10"></path></g><g transform="scale(1,1)"><path fill="#FFFFFF" stroke="none" d="M 177.9677724355489 201.8977462537133 L 167 201.056338028169 L 174.160420801659 209.40668975388505 L 186.62181496534717 211.00542730637318"></path></g><g transform="scale(1,1)"><path fill="none" stroke="#000000" d="M 177.9677724355489 201.8977462537133 L 167 201.056338028169 L 174.160420801659 209.40668975388505 L 186.62181496534717 211.00542730637318 L 177.9677724355489 201.8977462537133" stroke-miterlimit="10"></path></g><g transform="scale(1,1)"><g><path fill="none" stroke="none"></path><text fill="#000000" stroke="none" font-family="Arial" font-size="13px" font-style="normal" font-weight="normal" text-decoration="none" x="233" y="228.63380281690138">*</text></g></g><g transform="scale(1,1)"><g><path fill="none" stroke="none"></path><text fill="#000000" stroke="none" font-family="Arial" font-size="13px" font-style="normal" font-weight="normal" text-decoration="none" x="188" y="206.056338028169">1</text></g></g><g transform="scale(1,1)"><rect fill="#C0C0C0" stroke="none" x="269" y="17" width="100" height="147" opacity="0.2"></rect></g><g transform="scale(1,1)"><rect fill="#ffffff" stroke="none" x="262" y="10" width="100" height="147"></rect></g><g transform="scale(1,1)"><path fill="none" stroke="#000000" d="M 262 10 L 362 10 L 362 157 L 262 157 L 262 10 Z" stroke-miterlimit="10"></path></g><g transform="scale(1,1)"><path fill="none" stroke="#000000" d="M 262 35 L 362 35" stroke-miterlimit="10"></path></g><g transform="scale(1,1)"><path fill="none" stroke="#000000" d="M 262 148 L 362 148" stroke-miterlimit="10"></path></g><g transform="scale(1,1)"><g><path fill="none" stroke="none"></path><text fill="#000000" stroke="none" font-family="Arial" font-size="13px" font-style="normal" font-weight="bold" text-decoration="none" x="295.5" y="29.5">Week</text></g></g><g transform="scale(1,1)"><g><path fill="none" stroke="none"></path><text fill="#000000" stroke="none" font-family="Arial" font-size="13px" font-style="normal" font-weight="normal" text-decoration="none" x="267" y="52.5">+firstDay: date</text></g></g><g transform="scale(1,1)"><g><path fill="none" stroke="none"></path><text fill="#000000" stroke="none" font-family="Arial" font-size="13px" font-style="normal" font-weight="normal" text-decoration="none" x="267" y="67.5">+oAVG: float</text></g></g><g transform="scale(1,1)"><g><path fill="none" stroke="none"></path><text fill="#000000" stroke="none" font-family="Arial" font-size="13px" font-style="normal" font-weight="normal" text-decoration="none" x="267" y="82.5">+dAVG: float</text></g></g><g transform="scale(1,1)"><g><path fill="none" stroke="none"></path><text fill="#000000" stroke="none" font-family="Arial" font-size="13px" font-style="normal" font-weight="normal" text-decoration="none" x="267" y="97.5">+oMAX: integer</text></g></g><g transform="scale(1,1)"><g><path fill="none" stroke="none"></path><text fill="#000000" stroke="none" font-family="Arial" font-size="13px" font-style="normal" font-weight="normal" text-decoration="none" x="267" y="112.5">+dMAX: integer</text></g></g><g transform="scale(1,1)"><g><path fill="none" stroke="none"></path><text fill="#000000" stroke="none" font-family="Arial" font-size="13px" font-style="normal" font-weight="normal" text-decoration="none" x="267" y="127.5">+oMIN: integer</text></g></g><g transform="scale(1,1)"><g><path fill="none" stroke="none"></path><text fill="#000000" stroke="none" font-family="Arial" font-size="13px" font-style="normal" font-weight="normal" text-decoration="none" x="267" y="142.5">+dMIN: integer</text></g></g><g transform="scale(1,1)"><path fill="none" stroke="#000000" d="M 167 133.49107142857144 L 261 100.75892857142858" stroke-miterlimit="10"></path></g><g transform="scale(1,1)"><path fill="#FFFFFF" stroke="none" d="M 252.7868327773112 108.07629723592476 L 261 100.75892857142858 L 250.0182527587105 100.12550333635345 L 240.2235742989102 107.99357680662949"></path></g><g transform="scale(1,1)"><path fill="none" stroke="#000000" d="M 252.7868327773112 108.07629723592476 L 261 100.75892857142858 L 250.0182527587105 100.12550333635345 L 240.2235742989102 107.99357680662949 L 252.7868327773112 108.07629723592476" stroke-miterlimit="10"></path></g><g transform="scale(1,1)"><g><path fill="none" stroke="none"></path><text fill="#000000" stroke="none" font-family="Arial" font-size="13px" font-style="normal" font-weight="normal" text-decoration="none" x="189" y="144.49107142857144">*</text></g></g><g transform="scale(1,1)"><g><path fill="none" stroke="none"></path><text fill="#000000" stroke="none" font-family="Arial" font-size="13px" font-style="normal" font-weight="normal" text-decoration="none" x="241" y="125.75892857142858">1</text></g></g></g></svg>